<svg width="187" height="60" fill="none" xmlns="http://www.w3.org/2000/svg"><path d="M23.52.96c4.213 0 7.92.613 11.12 1.84 3.253 1.227 6.16 3.067 8.72 5.52l-6.64 7.84c-3.84-3.04-7.867-4.56-12.08-4.56-2.187 0-3.867.427-5.04 1.28-1.12.8-1.68 1.947-1.68 3.44 0 1.067.293 1.947.88 2.64.587.693 1.573 1.36 2.96 2 1.387.64 3.573 1.44 6.56 2.4 5.707 1.813 9.867 4.107 12.48 6.88 2.667 2.72 4 6.507 4 11.36 0 3.52-.907 6.64-2.72 9.36-1.813 2.667-4.453 4.747-7.92 6.24-3.413 1.493-7.44 2.24-12.08 2.24C13.227 59.44 6 56.747.4 51.36l7.28-8.08c4.427 3.627 9.04 5.44 13.84 5.44 2.507 0 4.453-.533 5.84-1.6 1.387-1.12 2.08-2.587 2.08-4.4 0-1.28-.267-2.32-.8-3.12-.533-.853-1.493-1.6-2.88-2.24-1.333-.693-3.307-1.44-5.92-2.24C13.547 33.147 9.12 30.773 6.56 28 4 25.227 2.72 21.733 2.72 17.52c0-3.307.88-6.213 2.64-8.72 1.813-2.507 4.293-4.427 7.44-5.76C16 1.653 19.573.96 23.52.96zm71.206 38.4c0 3.84-.853 7.28-2.56 10.32-1.653 3.04-4.16 5.44-7.52 7.2-3.36 1.707-7.466 2.56-12.32 2.56-7.36 0-12.933-1.787-16.72-5.36-3.786-3.627-5.68-8.533-5.68-14.72V2.4h14.8v36.48c0 3.36.587 5.84 1.76 7.44 1.227 1.547 3.174 2.32 5.84 2.32 2.667 0 4.587-.8 5.76-2.4 1.174-1.6 1.76-4.053 1.76-7.36V2.4h14.88v36.96zm26.677-1.84h-4.08V58h-14.8V2.4h19.28c7.84 0 13.68 1.413 17.52 4.24 3.893 2.827 5.84 7.173 5.84 13.04 0 3.52-.827 6.453-2.48 8.8-1.6 2.347-4.187 4.453-7.76 6.32l13.84 23.2h-16.48l-10.88-20.48zm-4.08-10.08h4.96c5.12 0 7.68-2.587 7.68-7.76 0-2.4-.72-4.16-2.16-5.28-1.387-1.12-3.493-1.68-6.32-1.68h-4.16v14.72zM152.133 58V2.4h34.16l-1.52 10.48h-17.84v13.36h15.68v10.48h-15.68V58h-14.8z" fill="#fff"/></svg>